<?xml version="1.0" encoding="utf-8"?>
<!-- Generator: Adobe Illustrator 22.1.0, SVG Export Plug-In . SVG Version: 6.00 Build 0)  -->
<svg version="1.1" id="Layer_1" xmlns:serif="http://www.serif.com/"
	 xmlns="http://www.w3.org/2000/svg" xmlns:xlink="http://www.w3.org/1999/xlink" x="0px" y="0px" viewBox="0 0 1000 600"
	 style="enable-background:new 0 0 1000 600;" xml:space="preserve">
<style type="text/css">
	.st0{opacity:0.75;}
	.st1{fill:#FCE012;}
	.st2{opacity:0.5;}
</style>
<g class="st0">
	<path class="st1" d="M0,37.4c0.1,0,0.2,0,0.4,0l0,0H0z"/>
	<path class="st1" d="M999.3,90.1c-166.5,0-166.5-52.7-333.1-52.7c-166.5,0-166.5,52.7-333.1,52.7c-166.4,0-166.5-52.6-332.7-52.7
		v525c166.2-0.1,166.3-52.7,332.7-52.7c166.5,0,166.5,52.7,333.1,52.7c166.5,0,166.5-52.7,333.1-52.7h0.4v-33.4V90.1H999.3z"/>
	<path class="st1" d="M0.4,562.4L0.4,562.4c-0.1,0-0.2,0-0.4,0H0.4z"/>
</g>
<g class="st2">
	<path class="st1" d="M999.8,37.5c-166.5,0-166.5,52.7-333.1,52.7c-166.5,0-166.5-52.7-333.1-52.7c-166.5,0-166.5,52.7-333.1,52.7
		H0.2v419.7h0.4c166.5,0,166.5,52.7,333.1,52.7c166.5,0,166.5-52.7,333.1-52.7c166.5,0,166.5,52.7,333.1,52.7l-0.4-86.1L999.8,37.5z
		"/>
</g>
</svg>
